<svg width="43" height="31" viewBox="0 0 43 31" xmlns="http://www.w3.org/2000/svg">
<path d="M9.60194 31C15.4466 31 19.9345 27.1384 19.9345 22.3114C19.9345 18.3426 17.6383 16.8408 15.2379 15.7682C13.568 14.8028 11.4806 14.1592 11.4806 12.3356C11.4806 9.97578 13.7767 7.50865 15.6553 6.00692C16.9078 4.93426 18.0558 4.18339 18.0558 2.68166C18.0558 1.17993 16.9078 0 15.2379 0C9.91505 0 0 10.6194 0 21.0242C0 27.6747 3.23544 31 9.60194 31ZM32.6675 31C38.6165 31 43 27.1384 43 22.3114C43 18.3426 40.7039 16.8408 38.4078 15.7682C36.6335 14.8028 34.5461 14.1592 34.5461 12.3356C34.5461 9.97578 36.9466 7.50865 38.7209 6.00692C40.0777 4.93426 41.1214 4.18339 41.1214 2.68166C41.1214 1.17993 40.0777 0 38.3034 0C32.9806 0 23.1699 10.6194 23.1699 21.0242C23.1699 27.6747 26.301 31 32.6675 31Z"/>
</svg>
