<svg width="24" height="24" viewBox="0 0 24 24" fill="none" xmlns="http://www.w3.org/2000/svg">
<path  d="M 12.001953 4 C 12.001953 4 5.1144581 3.999865 3.3925781 4.453125 C 2.4682681 4.706775 1.706785 5.4677163 1.453125 6.4101562 C 1.000035 8.1318662 1 11.703125 1 11.703125 C 1 11.703125 1.000035 15.292394 1.453125 16.996094 C 1.706945 17.938494 2.4499681 18.681747 3.3925781 18.935547 C 5.1324181 19.406847 12.001953 19.40625 12.001953 19.40625 C 12.001953 19.40625 18.889428 19.406425 20.611328 18.953125 C 21.553928 18.699425 22.296981 17.956172 22.550781 17.013672 C 23.003881 15.291872 23.003906 11.720703 23.003906 11.720703 C 23.003906 11.720703 23.022181 8.1318662 22.550781 6.4101562 C 22.297181 5.4675462 21.553728 4.7245231 20.611328 4.4707031 C 18.889428 3.9994831 12.001953 4 12.001953 4 z M 9.8066406 8.4042969 L 15.535156 11.703125 L 9.8066406 15.001953 L 9.8066406 8.4042969 z" fill="black"/>
</svg>
