<svg width="24" height="24" viewBox="0 0 24 24" fill="none" xmlns="http://www.w3.org/2000/svg">
<path fill-rule="evenodd" clip-rule="evenodd" d="M20.6115 4.47122C21.5539 4.72504 22.2971 5.46805 22.5507 6.41066C23.0221 8.13237 23.004 11.7212 23.004 11.7212C23.004 11.7212 23.004 15.2917 22.5509 17.0135C22.2971 17.956 21.5541 18.6991 20.6115 18.9528C18.8896 19.4061 12.0022 19.4061 12.0022 19.4061C12.0022 19.4061 5.13286 19.4061 3.39302 18.9348C2.45041 18.681 1.7074 17.9378 1.45358 16.9954C1.00049 15.2917 1.00049 11.703 1.00049 11.703C1.00049 11.703 1.00049 8.13237 1.45358 6.41066C1.70724 5.46822 2.46854 4.70691 3.39285 4.45326C5.11473 4 12.0021 4 12.0021 4C12.0021 4 18.8896 4 20.6115 4.47122ZM15.5348 11.7031L9.80744 15.0018V8.40433L15.5348 11.7031Z" fill="black"/>
</svg>
