<svg width="24" height="24" viewBox="0 0 24 24" fill="none" xmlns="http://www.w3.org/2000/svg">
<path d="M12 15.1434C10.2674 15.1434 8.85662 13.7326 8.85662 12C8.85662 10.2661 10.2674 8.85662 12 8.85662C13.7326 8.85662 15.1434 10.2661 15.1434 12C15.1434 13.7326 13.7326 15.1434 12 15.1434Z" fill="black"/>
<path fill-rule="evenodd" clip-rule="evenodd" d="M2.5 12C2.5 8.54918 2.5 6.82378 3.21014 5.52325C3.74352 4.54644 4.54644 3.74352 5.52325 3.21014C6.82378 2.5 8.54918 2.5 12 2.5C15.4508 2.5 17.1762 2.5 18.4768 3.21014C19.4536 3.74352 20.2565 4.54644 20.7899 5.52325C21.5 6.82378 21.5 8.54918 21.5 12C21.5 15.4508 21.5 17.1762 20.7899 18.4768C20.2565 19.4536 19.4536 20.2565 18.4768 20.7899C17.1762 21.5 15.4508 21.5 12 21.5C8.54918 21.5 6.82378 21.5 5.52325 20.7899C4.54644 20.2565 3.74352 19.4536 3.21014 18.4768C2.5 17.1762 2.5 15.4508 2.5 12ZM12 6.97059C9.22251 6.97059 6.97059 9.22251 6.97059 12C6.97059 14.7775 9.22251 17.0294 12 17.0294C14.7775 17.0294 17.0294 14.7775 17.0294 12C17.0294 9.22251 14.7775 6.97059 12 6.97059ZM18.0772 6.59341C18.0772 6.96353 17.7772 7.26358 17.4071 7.26358C17.0369 7.26358 16.7369 6.96353 16.7369 6.59341C16.7369 6.22328 17.0369 5.92324 17.4071 5.92324C17.7772 5.92324 18.0772 6.22328 18.0772 6.59341Z" fill="black"/>
</svg>
