<svg width="890" height="649" viewBox="0 0 890 649" fill="none" xmlns="http://www.w3.org/2000/svg">
<clipPath id="img-mask-2">
<path d="M0.089878 631.473C-0.162158 634.911 -0.041671 646.275 2.57034 646C30.0703 647.152 60.3494 644.401 88.3254 647.152C136.441 651.851 173.557 644.691 221.948 644.53C247.793 644.53 284.501 639.885 310.323 641.719C345.081 644.195 379.908 641.88 414.712 640.436C469.289 638.143 523.89 638.143 578.49 637.937L877.863 637.249C878.989 637.128 880.035 636.613 880.819 635.795C881.603 634.978 882.073 633.91 882.147 632.779C887.139 599.38 887.701 565.467 883.82 531.92C880.544 502.12 890.098 386.934 888.998 366.464C882.72 247.587 881.323 128.504 884.805 9.21485C884.983 7.87998 884.632 6.52842 883.827 5.44902C883.022 4.36961 881.827 3.64798 880.498 3.43834C780.691 2.13175 681.343 2.29221 582.064 2.72774C551.82 2.88056 521.575 3.06394 491.331 3.27788L354.292 4.21771C237.6 4.99708 122.121 -4.03444 5.33681 2.29221C4.10952 2.50863 3.00361 3.16632 2.22717 4.14152C1.45073 5.11673 1.05731 6.3422 1.12093 7.58734C-0.941179 87.106 2.38111 254.189 4.3974 287.175C11.5461 402.682 7.97173 518.9 0.089878 631.473Z" fill="#C4C4C4"/>
</clipPath>
</svg>
