<svg viewBox="0 0 1 1" preserveAspectRatio="none" fill="none" xmlns="http://www.w3.org/2000/svg">
<clipPath id="img-mask-responsive" clipPathUnits="objectBoundingBox">
<path d="m 1.0109021e-4,0.97326943 c -2.8347741e-4,0.005 -1.47959696e-4,0.0228 0.0027899,0.0224 0.03093057,0.002 0.06498698,-0.002 0.09645297,0.002 0.05411801,0.007 0.09586422,-0.004 0.15029198,-0.004 0.0290692,0 0.0703565,-0.007 0.0993997,-0.004 0.039094,0.004 0.0782657,2.5e-4 0.1174115,-0.002 0.0613855,-0.004 0.12279792,-0.004 0.18420925,-0.004 l 0.33671968,-0.001 c 0.001266,-1.9e-4 0.002443,-9.8e-4 0.003325,-0.002 8.8181e-4,-0.001 0.00141,-0.003 0.001494,-0.005 0.005615,-0.0515 0.006247,-0.10376 0.001882,-0.15547 -0.003685,-0.0459 0.007061,-0.2235 0.005824,-0.25506 -0.007062,-0.18324 -0.008633,-0.36681 -0.004717,-0.5507 2.0021e-4,-0.002 -1.9458e-4,-0.004 -0.0011,-0.006 -9.0542e-4,-0.002 -0.00225,-0.003 -0.003744,-0.003 -0.11225789,-0.002 -0.22399952,-0.002 -0.33566355,-0.001 -0.0340169,2.4e-4 -0.068035,5.2e-4 -0.10205191,8.5e-4 l -0.15413457,0.001 c -0.13124929,0.001 -0.26113426,-0.0127 -0.39248723,-0.003 -0.0013804,3.4e-4 -0.00262427,0.001 -0.00349757,0.003 -8.733e-4,0.002 -0.0013158,0.003 -0.00124424,0.005 -0.00231936,0.12257 0.00141738,0.38013 0.0036852,0.43098 0.0080405,0.17805 0.00402023,0.35721 -0.00484488,0.53074 z" fill="#C4C4C4"/>
</clipPath>
</svg>
