<?xml version="1.0" encoding="utf-8"?>
<!-- Generator: Adobe Illustrator 25.0.0, SVG Export Plug-In . SVG Version: 6.00 Build 0)  -->
<svg version="1.1" id="Layer_1" xmlns="http://www.w3.org/2000/svg" xmlns:xlink="http://www.w3.org/1999/xlink" x="0px" y="0px"
	 viewBox="0 0 625 764" style="enable-background:new 0 0 625 764;" xml:space="preserve">
<style type="text/css">
	.st0{fill:#FFFFFF;}
</style>
<g>
	<path class="st0" d="M3.7,2c1-0.7,2.3-1.1,3.6-1.1C84.6-0.9,247.1,2,279.3,3.7C391.5,9.8,504.5,6.8,613.9,0c0.2,0,0.4,0,0.5,0H0
		v82.6c0-26,0.6-52,2.2-78.1C2.2,3.5,2.8,2.7,3.7,2z"/>
	<path class="st0" d="M9,760.3c-0.7,0-1.4-0.1-2.1-0.2c-0.7-0.2-1.3-0.4-1.8-0.8c-0.5-0.3-0.9-0.8-1.2-1.2c-0.3-0.5-0.4-1-0.5-1.5
		c-1.3-85.8-1.2-171.1-0.8-256.5c0.1-26,0.3-52,0.5-78l0.9-117.8C4.7,230.2,0,156.6,0,82.6V764h360.3c-1.6,0-2.9,0-4-0.1
		C240.7,758.5,124.8,757.3,9,760.3z"/>
	<path class="st0" d="M614.5,0c0.6,0,1.2,0.1,1.8,0.2c0.7,0.2,1.4,0.5,2,0.9c0.6,0.4,1,0.8,1.3,1.3c0.3,0.5,0.4,1.1,0.3,1.6
		c-2.7,23.9,0.2,55.4,2.8,79.5c4.6,41.4,0.1,76.9,0,118.5c0,22.2-0.5,42.5,1.2,64.7c0.8,9.5,1.1,19,1.1,28.5V0H614.5z"/>
	<path class="st0" d="M620.2,497.1l-0.7,257.3c0,0.9-0.4,1.7-1.2,2.4c-0.8,0.7-1.9,1.1-3.1,1.3c-32.3,4.3-65.5,4.8-98,1.4
		c-27.5-2.7-129.1,4.5-156.8,4.5H625V295.2c0,20.4-1.4,40.8-2.3,61.2C620.4,403.3,620.4,450.2,620.2,497.1z"/>
</g>
</svg>
