<svg viewBox="0 0 1 1" preserveAspectRatio="none" fill="none" xmlns="http://www.w3.org/2000/svg">
<clipPath id="img-mask-responsive-left" clipPathUnits="objectBoundingBox">
<path d="m 0,0.99566941 c 0,0 0.06787797,-0.002 0.09934396,0.002 0.05411801,0.007 0.09586422,-0.004 0.15029198,-0.004 0.0290692,0 0.0703565,-0.007 0.0993998,-0.004 0.039094,0.004 0.0782657,2.5e-4 0.1174115,-0.002 0.0613855,-0.004 0.12279792,-0.004 0.18420925,-0.004 l 0.33671968,-0.001 c 0.001266,-1.9e-4 0.002443,-9.9e-4 0.003325,-0.002 8.8181e-4,-0.001 0.00141,-0.003 0.001494,-0.005 0.005615,-0.0517 0.006247,-0.10412 0.001882,-0.15601 -0.003685,-0.0461 0.007061,-0.22428 0.005824,-0.25595 -0.007062,-0.18389 -0.008633,-0.3681 -0.004717,-0.55263 2.0021e-4,-0.002 -1.9458e-4,-0.004 -0.0011,-0.006 -9.0542e-4,-0.002 -0.002249,-0.003 -0.003744,-0.003 C 0.87808228,7.94145e-5 0.76634065,7.94145e-5 0.65467662,0.00107941 c -0.0340169,2.4e-4 -0.068035,5.2e-4 -0.10205191,8.5e-4 l -0.15413457,0.001 C 0.26724052,0.00409941 0,-8.058548e-5 0,-8.058548e-5 Z" fill="#C4C4C4"/>
</clipPath>
</svg>
