<svg xmlns="http://www.w3.org/2000/svg" viewbox="0 0 538 403" width="538" height="403" fill="none" preserveAspectRatio="none" xmlns:v="https://vecta.io/nano"><path d="M.054 392.269c-.153 2.136-.08 9.195 1.501 9.024 16.641.716 34.963-.993 51.892.716 29.116 2.919 51.575-1.529 80.857-1.629 15.64 0 37.852-2.885 53.477-1.746 21.033 1.538 42.107.1 63.168-.798 33.025-1.424 66.065-1.424 99.104-1.552l181.155-.427c.681-.076 1.315-.395 1.789-.903s.759-1.172.804-1.874a244.81 244.81 0 0 0 1.012-62.656c-1.983-18.513 3.799-90.069 3.133-102.786-3.799-73.849-4.644-147.826-2.537-221.932a3.27 3.27 0 0 0-.592-2.339c-.487-.671-1.21-1.119-2.014-1.249l-180.587-.441-137.828.926C143.775 3.086 73.897-2.525 3.229 1.406c-.743.134-1.412.543-1.882 1.149S.64 3.922.678 4.695C-.57 54.094 1.441 157.89 2.661 178.382 6.987 250.138 4.824 322.335.054 392.269z" fill="#f6943e"/></svg>