<svg xmlns="http://www.w3.org/2000/svg" width="231.07" height="147.67" viewBox="0 0 231.07 147.67"><path fill="#c4c4c4" d="M231.06,3.66a4.42,4.42,0,0,0-.13-.71,1.34,1.34,0,0,0-.07-.18.28.28,0,0,0-.14-.22l-.09-.07-.09,0a1.21,1.21,0,0,0,0-.19h0a.36.36,0,0,0,0-.11s0-.06,0-.08a1.13,1.13,0,0,0,0-.32.44.44,0,0,0-.21-.32,1.84,1.84,0,0,0,0-.33.33.33,0,0,0-.47-.26c-.12-.06-.25-.1-.38-.15a1.42,1.42,0,0,0-.3-.25.4.4,0,0,0-.56-.24.4.4,0,0,0-.57.07.41.41,0,0,0-.64.13,1.1,1.1,0,0,0-.15-.16.39.39,0,0,0-.55,0,.35.35,0,0,1-.05-.08.36.36,0,0,0-.62,0,.35.35,0,0,0,0,.13,2.34,2.34,0,0,0-.39-.25.37.37,0,0,0-.51.19.36.36,0,0,0-.58-.12,1.8,1.8,0,0,0-.29.39.41.41,0,0,0-.41.16l0,.06a.41.41,0,0,0,0-.07c-.16-.34-.66-.15-.67.18A1.09,1.09,0,0,1,223,1a1,1,0,0,0-.69,0,1.08,1.08,0,0,0-.48.39l-.08.07a.38.38,0,0,0-.38.26.51.51,0,0,0,.3.69c.29.07.46-.15.51-.39.23-.24.54-.6.73-.24a.36.36,0,0,0,.65-.08c0-.1.05-.2.08-.3a.62.62,0,0,0,.23,0l.07.09a.36.36,0,0,0,.56-.07c.05-.13.1-.26.16-.38l.06.05c.21.14.47.18.68.32a.35.35,0,0,0,.53-.3l.12.05a.41.41,0,0,0,.35-.09c.18.15.37.27.58.42a.3.3,0,0,0,.35,0,.58.58,0,0,0,.62.06l.14-.08a.39.39,0,0,0,.18.1l.19,0a.41.41,0,0,0,.11,0,.71.71,0,0,1,.42.43.33.33,0,0,0-.2.32c0,.25,0,.5,0,.75a.34.34,0,0,0,.12.27h0a.28.28,0,0,0-.06.18,3.89,3.89,0,0,1,0,.49.39.39,0,0,0-.39.38c0,.65-.23,1.28-.21,1.93l-.08.09a4.53,4.53,0,0,1-.61.89,1.19,1.19,0,0,0-.4.68c0,.24.14.71,0,.88a4.08,4.08,0,0,1-.74.48,1.58,1.58,0,0,0-.54,1.54s0,.06,0,.12h0c-.29.15-.6.26-.89.4a.32.32,0,0,0-.18.34.29.29,0,0,0,0,.3h0a.29.29,0,0,0-.31.23c-.07.42.07,1.35-.3,1.6-.16.12-.34.12-.47.3s-.06.14-.1.2-.2,0-.24,0c-.43.09-.66.59-.82.94a3.12,3.12,0,0,0-.19.59c-.09.29-.16.34-.46.39a1.2,1.2,0,0,0-1,.94,6.14,6.14,0,0,1-.15.72c-.08.22-.26.23-.44.35a.85.85,0,0,0-.34.47h0a.64.64,0,0,0-.28.07.82.82,0,0,0-.4.49,1.54,1.54,0,0,1-.05.17.4.4,0,0,0-.36.2,4.66,4.66,0,0,0-.15.62c-.06.17-.17.14-.35.17a.86.86,0,0,0-.78.62.87.87,0,0,0,0,.36.25.25,0,0,0,0,.12,2.13,2.13,0,0,1-.12.72c-.12.19-.54.13-.75.23a1,1,0,0,0-.51.61c-.06.26,0,.39-.25.49a1.77,1.77,0,0,0-.8.39c-.26.25-.41.6-.66.86-.55.58-1.11,1.18-1.67,1.75a8.3,8.3,0,0,0-.69.76,3.07,3.07,0,0,0-.28.42,2.41,2.41,0,0,1-.18.47c-.12.18-.48.13-.68.17a1.22,1.22,0,0,0-.79.56c-.14.22-.18.48-.32.71a3.14,3.14,0,0,1-.75.65,2.51,2.51,0,0,0-.65.69,1.58,1.58,0,0,1-.7.6,1.64,1.64,0,0,0-.88,1,1.72,1.72,0,0,0-.43.65,2.46,2.46,0,0,0-.09.29,15.34,15.34,0,0,1-2.59,2.12,9,9,0,0,0-1,1v-.06a2.79,2.79,0,0,1,0-1.15,4.85,4.85,0,0,0,.14-.76,10.34,10.34,0,0,0-.07-1.11c0-.41,0-.82,0-1.24a9.89,9.89,0,0,0-.17-2.37c-.1-.41-.24-.82-.36-1.22s-.22-.81-.37-1.19-.32-.71-.45-1.07a9.11,9.11,0,0,0-.41-1.07,10.68,10.68,0,0,0-1.2-1.78c-.46-.6-.86-1.25-1.33-1.84a6.8,6.8,0,0,0-1.67-1.54,10.08,10.08,0,0,1-1-.62A5.17,5.17,0,0,1,195,19a5.63,5.63,0,0,0-1.65-1.38c-.66-.34-1.23-.79-1.93-1.08a15.42,15.42,0,0,1-2.06-1.24,6.2,6.2,0,0,0-2.08-.84,6.5,6.5,0,0,1-1.3-.32c-.42-.17-.81-.4-1.22-.58a3.79,3.79,0,0,0-2.09-.61c-.25,0-.47.17-.72.08a2.08,2.08,0,0,1-.59-.43,1.38,1.38,0,0,0-1.27-.41c-.28-.15-.58-.27-.87-.39a3,3,0,0,0-1.67-.42,2.14,2.14,0,0,1-.35.06H177a3.05,3.05,0,0,1-.49-.38,1.15,1.15,0,0,0-.68-.19c-.3,0-.34,0-.56-.16s-.65-.65-1.1-.5a.91.91,0,0,0-.44.36l-.05.06a2.08,2.08,0,0,0-.29-.19c-.54-.25-1.11,0-1.67,0a5.85,5.85,0,0,1-1-.28,2.17,2.17,0,0,0-1,0,2.15,2.15,0,0,1-.43,0A1.18,1.18,0,0,1,169,10a2.82,2.82,0,0,0-.92-.33,3.62,3.62,0,0,0-.93-.07c-.28,0-.65.17-.91,0s-.3-.24-.51-.26a3.51,3.51,0,0,0-1.17-.43,17.42,17.42,0,0,0-3.75,0,22.53,22.53,0,0,1-3.67.21c-1.08-.09-2.16-.6-3.24-.35-.52.12-1,.35-1.51.51a4.17,4.17,0,0,1-1.65,0,18.61,18.61,0,0,0-3.5,0c-.57.07-1.13.16-1.69.28a9.1,9.1,0,0,1-1.79.33,6.14,6.14,0,0,0-1.91.17c-.56.2-1.05.51-1.62.67a8.57,8.57,0,0,1-1.88.3.42.42,0,0,0-.16,0c-.82,0-1.65,0-2.47,0a7.06,7.06,0,0,0-2.34.21,3.25,3.25,0,0,1-.84.3,2,2,0,0,1-.87-.22,1.25,1.25,0,0,0-.74-.05,2.43,2.43,0,0,0-.76.45c-.28.18-.66.06-1,0a2.91,2.91,0,0,0-1.06.07,6.27,6.27,0,0,1-1.43.44,3.65,3.65,0,0,0-1,0,1.44,1.44,0,0,0-.7.44c-.29.32-.55,1-1.08,1-.31-.05-.59-.2-.9-.25a1.89,1.89,0,0,0-1,.19,3,3,0,0,1-1,.38c-.18,0-.36,0-.54,0a1.57,1.57,0,0,0-.5.21,1.2,1.2,0,0,1-.82.31c-.38,0-.75-.17-1.14-.18-.68,0-1.16.47-1.8.55s-1.09-.08-1.61.26a3.15,3.15,0,0,0-.61.6c-.08.09-.2.24-.28.26a2,2,0,0,1-.77-.13,1.63,1.63,0,0,0-.82,0,1.81,1.81,0,0,0-.57.33,1.8,1.8,0,0,1-.79.34,2.63,2.63,0,0,0-1,.53,2.79,2.79,0,0,1-1.07.29,2.11,2.11,0,0,0-1,.55,1.32,1.32,0,0,1-1,.42c-.41,0-.82-.05-1.23,0a2.87,2.87,0,0,0-1.13.46,3.33,3.33,0,0,1-.94.36,1.08,1.08,0,0,0-.77.56.39.39,0,0,0,0,.21s0,0,0,0a21.52,21.52,0,0,0-2,.75c-.39.11-.79.17-1.18.28a8.92,8.92,0,0,0-1.12.43c-.79.34-1.58.66-2.38,1l-1,.38a5,5,0,0,1-.5.18,1.77,1.77,0,0,1-.56.05,1.05,1.05,0,0,0-.83.38c-.09.11-.16.25-.26.36a1.75,1.75,0,0,1-.48.27,8,8,0,0,0-1.8.78,3.78,3.78,0,0,1-1.59.93,2.77,2.77,0,0,0-1.47.33.8.8,0,0,0-.3.4c-.83.38-1.6,1-2.52,1a1,1,0,0,0-1.07.72c-.09.24-.14.35-.39.41a.63.63,0,0,1-.57-.07.4.4,0,0,0-.56,0,1.07,1.07,0,0,0-.2.32s-.07.16-.1.25l-.18-.06a1,1,0,0,0-.39,0,.73.73,0,0,0-.61.49l0,.05a1.86,1.86,0,0,0-.38-.15.42.42,0,0,0-.5.29c-.07.19-.11.39-.17.59s-.12.34-.39.29c-.52-.09-1-.27-1.42.1a2.14,2.14,0,0,0-.46.49c-.1.14-.21.14-.42.19a3.22,3.22,0,0,0-1.32.47,2.24,2.24,0,0,0-.35.46.75.75,0,0,1-.62.34,2,2,0,0,0-1.41.46c-.12.12-.23.32-.41.37s-.23,0-.35,0a.82.82,0,0,0-.42.2,3,3,0,0,0-.43.63,1.91,1.91,0,0,1-.63.49,6,6,0,0,0-1.36.85c-.44.42-.67.92-1.35.89a4.64,4.64,0,0,0-1.62,0,6.17,6.17,0,0,0-1.45.73,9.06,9.06,0,0,0-1.24,1c-.4.37-.7.92-1.24,1.1s-1,.23-1.33.71c-.17.26-.17.43-.47.57s-.53.23-.79.37c-.53.28-1.07.56-1.58.88a3.54,3.54,0,0,0-.94.74,8.7,8.7,0,0,0-.77.53A4.29,4.29,0,0,1,55.15,44a4.33,4.33,0,0,0-1.24.3c-.45.24-.51.61-.67,1a1.09,1.09,0,0,1-.64.62,15.75,15.75,0,0,0-1.4.89c-1,.66-2,1.34-3,2a61.33,61.33,0,0,0-5.52,4.25,13.06,13.06,0,0,1-1.48,1.19,11.89,11.89,0,0,1-1.43.71,3.32,3.32,0,0,0-.95.76,6.16,6.16,0,0,0-.4.71,8.58,8.58,0,0,0-1.78,1.51c-.43.45-.84.91-1.29,1.33s-1,.8-1.51,1.19a15.66,15.66,0,0,0-2.86,2.59,9.14,9.14,0,0,1-1,1.35c-.41.36-.86.66-1.27,1S27.48,66.49,27,67a4.92,4.92,0,0,0-.57.64c-.13.2-.12.37-.37.43a.39.39,0,0,0-.26.22,4.06,4.06,0,0,0-.52.49c-.26.29-.44.63-.67.94a12,12,0,0,1-1,1.22c-.39.41-.79.82-1.14,1.27a7.2,7.2,0,0,0-.76,1.28,2.77,2.77,0,0,1-.16.31c-.05.06-.08.06-.2.13a2.55,2.55,0,0,1-.43.23,1.76,1.76,0,0,0-.62.25.59.59,0,0,0-.24.49c0,.26,0,.28-.17.47a13.84,13.84,0,0,0-1.19,1.11c-.35.42-.68.87-1,1.31s-.64.75-1,1.11a3.09,3.09,0,0,0-.58,1c-.14.37-.18.78-.35,1.15a1.08,1.08,0,0,1-.87.5,2,2,0,0,0-.92.38c-.79.67-.77,1.73-1.24,2.57-.24.41-.63.53-1,.81a1.5,1.5,0,0,0-.49,1.21,1.94,1.94,0,0,1-.75,1.1,5.39,5.39,0,0,0-.76,1.14c-.45.8-1.33,1.42-1.36,2.4,0,.23.1.54,0,.74s-.35.26-.49.37a4.25,4.25,0,0,0-.9,1.2c-.3.47-.7.89-1,1.37a7.21,7.21,0,0,0-.36.74.89.89,0,0,0-.08.29c0,.08.07.23,0,.3s-.3.21-.39.34a3.06,3.06,0,0,0-.35.7,12.53,12.53,0,0,0-.54,1.52c-.09.33-.07.88-.3,1.13s-.64.28-.86.6a1.47,1.47,0,0,0-.21.66,1.29,1.29,0,0,1-.13.73c-.12.16-.3.29-.43.45A1.64,1.64,0,0,0,2,103,5.44,5.44,0,0,0,2,104.53a2.34,2.34,0,0,1-.24,1.38c-.2.27-.47.49-.66.77A2.47,2.47,0,0,0,.71,108a5.11,5.11,0,0,1,0,1,.36.36,0,0,0-.36.29A28.25,28.25,0,0,0,.24,117a5.64,5.64,0,0,0,.36,1.77c.23.59.61,1.09.88,1.66a12.7,12.7,0,0,0,.89,1.67,9.87,9.87,0,0,0,1.16,1.34,12.51,12.51,0,0,1,1,1.1,4.34,4.34,0,0,0-.12.95c0,.51,0,1,0,1.53a10,10,0,0,0,.15,1.45,2.7,2.7,0,0,0,.14.56,1.4,1.4,0,0,0-.23,2c-.51,1.13.12,2.38.53,3.48a6.14,6.14,0,0,0,.38.92,6.48,6.48,0,0,1,.53,1c.2.64-.08,1.33.2,1.95s.79.71,1.26,1.05.73,1.11,1.11,1.62a13.41,13.41,0,0,0,3.27,2.57c.57.4,1.09.86,1.67,1.24a11.86,11.86,0,0,0,1.85.93,16,16,0,0,0,4,1,9.12,9.12,0,0,1,2,.56,4.74,4.74,0,0,0,1.58.33,17.14,17.14,0,0,0,2.14-.27c.8-.1,1.6-.19,2.4-.22,1.54-.07,3.07,0,4.6-.05a13.07,13.07,0,0,0,2.25-.29c.75-.17,1.5-.42,2.24-.63,1.57-.45,3.14-.88,4.74-1.21a16,16,0,0,1,2.47-.38,19.4,19.4,0,0,0,2.16-.09,2.15,2.15,0,0,0,.92-.35,6.32,6.32,0,0,1,1.7-.76c1.19-.34,2.47-.6,3.17-1.72.29-.48.57-1.09,1.24-1,.29,0,.55.16.84.21a4.91,4.91,0,0,0,1.15.07,14.43,14.43,0,0,0,3.95-1.05A13.27,13.27,0,0,0,62.44,138c.57-.43,1.12-.88,1.69-1.3a4.86,4.86,0,0,1,1.79-1,5,5,0,0,1,.87,0,3.17,3.17,0,0,0,1-.18,11.66,11.66,0,0,0,1.44-.76,16.6,16.6,0,0,0,2.81-1.45,2.31,2.31,0,0,0,.77-.9,7.91,7.91,0,0,1,1.29-.08c1.26-.18,2.25-1.29,3.42-1.76a9.46,9.46,0,0,0,1.88-.88c.57-.38,1.09-.82,1.67-1.2,1.24-.8,2.86-.81,4-1.69.44-.33.76-.94,1.27-1.14.35-.14.7.06,1,.09a1.6,1.6,0,0,0,.83-.15,6.61,6.61,0,0,0,1.5-1.14,7.33,7.33,0,0,1,.68-.57c.08-.06.32-.26.42-.26a1.63,1.63,0,0,0,.28.17,1,1,0,0,0,1.16-.3A1.55,1.55,0,0,1,93,123c.44-.16.9-.26,1.34-.41a29.74,29.74,0,0,0,4.16-2.24c.82-.43,1.94-.81,2.41-1.66a1,1,0,0,1,.47.27.41.41,0,0,0,.49.07,11.38,11.38,0,0,0,1.61-1.49c.73-.69,1.57-.65,2.46-1,1.64-.56,3-1.87,4.42-2.82a8.28,8.28,0,0,1,1.1-.67,2.07,2.07,0,0,1,1,0,.75.75,0,0,0,.62-.27,5,5,0,0,1,.74-.85,20.17,20.17,0,0,1,2-1.45,12.52,12.52,0,0,1,2-.74,4.56,4.56,0,0,0,3-2.24c1.51.3,3.25-.88,4.42-1.64.82-.53,1.62-1.11,2.44-1.67s1.85-1.1,2.8-1.64c2.66-1.51,5.3-3.08,7.87-4.74s5-3.39,7.65-4.94c1.27-.75,2.59-1.42,3.81-2.26s2.31-1.73,3.53-2.48a22,22,0,0,0,3.1-2.33,14.1,14.1,0,0,1,3.09-2.35,18,18,0,0,1,1.91-.68,5.93,5.93,0,0,0,1.67-1c.52-.44,1-1,1.48-1.43A12.75,12.75,0,0,1,166.31,79c1.2-.85,2.47-1.59,3.68-2.41.53-.36,1-.76,1.59-1.1s1.18-.72,1.73-1.14a3.79,3.79,0,0,0,1.16-1.42,3,3,0,0,1,.46-.82c.25-.24.57-.23.88-.33a2.81,2.81,0,0,0,1.24-.92c.46-.48.9-1,1.31-1.49a6.08,6.08,0,0,0,1.1-1.65c.06-.06.09-.16.16-.22s.38-.08.56-.14a1.13,1.13,0,0,0,.69-.66c0-.1.09-.31.21-.35a2.71,2.71,0,0,1,.4,0,1.08,1.08,0,0,0,.78-.51c.2-.31.22-.65.52-.91a6.34,6.34,0,0,0,1.72-1.78,2.74,2.74,0,0,1,.75-1.14c.29-.2.6-.37.88-.59a7.07,7.07,0,0,0,.87-.86c.48-.57.9-1.19,1.38-1.77s1.15-.67,1.55-1.26a6.69,6.69,0,0,1,1.19-1.64c.29-.26.63-.46.91-.73a6.79,6.79,0,0,0,.76-.85,15.9,15.9,0,0,0,1.12-1.91,3.47,3.47,0,0,1,.6-.95,9.4,9.4,0,0,0,.74-.66c.26-.29.44-.65.7-.94s.59-.63.85-1,.54-.73.8-1.09a5.23,5.23,0,0,0,.71-1.11c.15-.37.19-.78.36-1.15a6.08,6.08,0,0,1,.88-1.14,6.77,6.77,0,0,0,.76-1.08,8.5,8.5,0,0,1,.62-1.2.79.79,0,0,1,.39-.31.83.83,0,0,0,.44-.32,1.38,1.38,0,0,0,.17-.43.37.37,0,0,0,.14-.09,5.52,5.52,0,0,0,.57-.93,2.38,2.38,0,0,1,.73-.75c.53-.42.95-1.1,1.69-1.12a.41.41,0,0,0,.39-.3c.12-.43.65-.49.93-.79a1.6,1.6,0,0,0,.35-.7c.06-.25.07-.58.3-.74a2.63,2.63,0,0,1,.67-.22,1.21,1.21,0,0,0,.61-.4,2.69,2.69,0,0,0,.47-1.25c.07-.15.15-.36.3-.42s.4.12.61.11.48-.33.56-.6a3.94,3.94,0,0,1,.1-.47c.09-.23.26-.12.47-.17a.88.88,0,0,0,.57-.75,1.65,1.65,0,0,1,.1-.44c.08-.13.19-.12.34-.13a2.14,2.14,0,0,0,1-.17,2,2,0,0,0,.69-.89c.1-.18.18-.35.27-.53s.16-.29.37-.37a.76.76,0,0,0,.54-.86l0-.07.18,0a1.93,1.93,0,0,0,.42-.06,1.32,1.32,0,0,0,.71-.74,4.71,4.71,0,0,1,.42-.84c.08-.12.21-.38.35-.44s.22,0,.3,0a.66.66,0,0,0,.3-.07c.4-.18.4-.56.48-.93a.45.45,0,0,1,0-.11s.26,0,.29,0a.77.77,0,0,0,.43-.32,4.54,4.54,0,0,0,.58-1.14,3.32,3.32,0,0,0,.15-.54l.08,0a.63.63,0,0,0,.56-.23c.08-.1.13-.21.2-.3s.19-.2.28-.32a5.86,5.86,0,0,1,.51-.69,1.63,1.63,0,0,0,.51-.68c.09-.24.11-.53.36-.63a1.27,1.27,0,0,0,.63-.35c.3-.37.23-1,.38-1.4s.65-.26,1-.56a1,1,0,0,0,.28-.65.67.67,0,0,1,0-.28s.26,0,.31,0a.69.69,0,0,0,.43-.48.64.64,0,0,0,0-.2v-.06a.64.64,0,0,0,.2-.11c.11-.09.15-.26.26-.32s.26,0,.39-.15a1,1,0,0,0,.28-.58,8.54,8.54,0,0,0,.07-1.34l0,0a7,7,0,0,1,.58-.64c.23-.19.42-.46.66-.63a1.6,1.6,0,0,0,.56-.47,3.63,3.63,0,0,0,.25-1.31,1.2,1.2,0,0,0,.45-.86,4.21,4.21,0,0,1,.12-.51l.11.12a.39.39,0,0,0,.65-.27c0-.22-.06-.42-.07-.64a1.58,1.58,0,0,1,.17-.67,3.91,3.91,0,0,1,.31-.57l0,0s.05-.1.08-.14l.27-.39a.27.27,0,0,0,0-.31.34.34,0,0,0,0-.2,2.61,2.61,0,0,0,0-.28,3.29,3.29,0,0,0,.27-1h0a.5.5,0,0,0,.21,0,.43.43,0,0,0,.18-.24A1.45,1.45,0,0,0,231,4s0-.05,0-.08h0a.5.5,0,0,0,0-.12S231.06,3.68,231.06,3.66Zm-63.48,6.59a2.43,2.43,0,0,1,.76.19l.18.1a9.82,9.82,0,0,1-1.06-.3Zm27.93,36a1,1,0,0,1-.24.52,2.74,2.74,0,0,1-1,.59c-.23.1-.44.17-.52.44A5.84,5.84,0,0,1,193.4,49a2.46,2.46,0,0,1-.86,1.07,1.76,1.76,0,0,0-.7.53,9.17,9.17,0,0,0-.38,1.08,2.07,2.07,0,0,1-.52.76c-.3.29-.66.5-1,.76a7.82,7.82,0,0,0-1,1.12c-.32.39-.7.71-1,1.13s-.41.81-.76,1a2.7,2.7,0,0,1-.49.12,1.13,1.13,0,0,0-.56.37c-.32.36-.46.85-.77,1.21a3.55,3.55,0,0,0-.85,1.15,1.15,1.15,0,0,0-.07.36h0l-.07,0a4.1,4.1,0,0,0-1,.32,1.2,1.2,0,0,0-.39.45.69.69,0,0,0-.08.28v0l-.09,0c-.47,0-.68.42-.85.81-.07.17-.14.35-.22.52l-.11.22s0,.06,0,.07a2.09,2.09,0,0,1-.35.13,2.49,2.49,0,0,0-.58.31,2.94,2.94,0,0,0-.9,1,1.81,1.81,0,0,0-.2.78c-.56,0-1.11-.12-1.52.42a7.75,7.75,0,0,0-.45,1.09l-.25-.12a.42.42,0,0,0-.56.14c-2,2.89-5.13,4.71-8,6.65-1.55,1-3,2.22-4.5,3.34s-3.19,2.25-4.64,3.54a36,36,0,0,1-4.12,3.59c-1.81,1.18-3.73,2.21-5.58,3.32-3.69,2.2-7.35,4.45-11,6.69s-7.3,4.39-10.92,6.65c-1.8,1.12-3.59,2.26-5.35,3.43-.86.57-1.7,1.17-2.57,1.72a15.81,15.81,0,0,1-2.78,1.34c-.87.34-1.75.67-2.6,1.09a22.35,22.35,0,0,0-2.51,1.56c-1.67,1.16-3.4,2.19-5.12,3.28-.88.55-1.73,1.16-2.66,1.62a19.09,19.09,0,0,1-2.65,1,27.92,27.92,0,0,0-5.34,2.57c-1.77,1-3.52,2.14-5.32,3.13a49.7,49.7,0,0,1-5.51,2.5,34.61,34.61,0,0,0-5.26,2.49,21,21,0,0,1-2.64,1.52c-.77.33-1.58.52-2.35.82a6.52,6.52,0,0,0-1.3.71.41.41,0,0,0-.43.25,1,1,0,0,1-.07.15l-.22.2a.28.28,0,0,0-.1.26,6.55,6.55,0,0,0-2.8,1.72,5.78,5.78,0,0,1-1.58,1,12.08,12.08,0,0,1-1.33.42,2.82,2.82,0,0,1-.29-.18.39.39,0,0,0-.59.42,8.61,8.61,0,0,0-1.79.69c-.64.36-1.14.92-1.8,1.24a19.47,19.47,0,0,1-2.22.78c-.71.24-1.43.45-2.14.7a11.59,11.59,0,0,0-2.06.93,8.32,8.32,0,0,1-1.48.77c-1.15.4-2.37.06-3.55.11a3.75,3.75,0,0,0-1.8.51A6.11,6.11,0,0,0,48.4,140a2,2,0,0,1-.7.55,3,3,0,0,1-1.25.12,5.61,5.61,0,0,0-2.17.44c-.66.27-1.29.61-1.94.92a16.64,16.64,0,0,1-2.13.81,6.6,6.6,0,0,1-2.24.35,9.57,9.57,0,0,0-2.27.16c-.72.16-1.42.38-2.14.52a6.62,6.62,0,0,1-2.13,0,5.08,5.08,0,0,0-2,0,6.47,6.47,0,0,0-.89.39,2.87,2.87,0,0,1-1,.24,19.44,19.44,0,0,1-4.17-.31,43.38,43.38,0,0,1-4.67-.8,12.47,12.47,0,0,1-4.17-1.61,16,16,0,0,1-3-2.72A24.1,24.1,0,0,1,9,136a9,9,0,0,1-1.2-3.13,18.8,18.8,0,0,1-.37-3.67,11.26,11.26,0,0,0-.16-2.25A30.47,30.47,0,0,0,10.94,128a6,6,0,0,0,1.52.54c.65,0,1.33-.11,2-.1,1.78,0,3.4,1,5.18.91a10.42,10.42,0,0,0,2.12-.52,13.45,13.45,0,0,1,2.46-.17c1.87-.19,3.75-.56,5.62-.82,1-.13,2-.33,3-.4a13.33,13.33,0,0,0,2.45-.08c.6-.16.9-.6,1.42-.88A6.3,6.3,0,0,1,39.4,126l.91-.11a2.52,2.52,0,0,1,1,.17.78.78,0,0,0,1-.54,2.61,2.61,0,0,0,.06-.26s.13,0,.2,0c.4,0,.79.1,1.2.07a1.43,1.43,0,0,0,1.22-.75c.3-.44.55-.38,1-.45a3.38,3.38,0,0,0,.81-.28,8.15,8.15,0,0,1,2.35-.39A12.88,12.88,0,0,0,53.45,122c1.93-.89,3.91-1.63,5.91-2.33A55.83,55.83,0,0,1,65.15,118a19.3,19.3,0,0,0,4.68-1.71,20.6,20.6,0,0,1,5.11-2,18.93,18.93,0,0,0,4.22-1.67,9,9,0,0,0,3.35-2.31,2.73,2.73,0,0,1,1.15-1.06,9.18,9.18,0,0,1,1.17-.18,11.72,11.72,0,0,0,2.58-1c1.7-.79,3.47-1.46,5.12-2.35s3.23-1.92,4.93-2.73a17.68,17.68,0,0,1,2.69-1.06c.55-.17,1.16-.2,1.7-.4,1.22-.45,1.62-1.87,2.65-2.52.73-.45,1.08.06,1.7.34a1.4,1.4,0,0,0,1.43-.19,3.64,3.64,0,0,0,.82-1.22,3.19,3.19,0,0,1,2.22-1.22,8,8,0,0,0,1.6-.55,16.11,16.11,0,0,0,2.17-1.62A16.48,16.48,0,0,1,119,92.45a25.54,25.54,0,0,0,4.62-1.83c1.45-.82,2.75-1.85,4.11-2.79,3-2.08,6.55-3.26,9.77-5,3.48-1.87,6.82-4,10.33-5.79s7.29-3.62,11-5.26a15.49,15.49,0,0,0,4-2.7,13.81,13.81,0,0,0,1.39-1.47,5.25,5.25,0,0,1,2.33-1.41c1.69-.71,3.27-1.71,4.9-2.56a40.79,40.79,0,0,0,5.06-2.58c1.35-1,2.4-2.27,3.8-3.16a14.33,14.33,0,0,0,3.54-2.57l.48-.6a1.23,1.23,0,0,0,.27,0c.4-.09.63-.5.92-.76s.81-.49,1.16-.81c.19-.17.34-.36.51-.53a1.21,1.21,0,0,1,.7-.29,1.29,1.29,0,0,0,.85-.89c.08-.21.12-.37.34-.46a3,3,0,0,0,.71-.26,3.15,3.15,0,0,0,.83-1.11c.48-.79,1.59-.73,2.18-1.41.21-.25.33-.59.62-.73a5,5,0,0,0,1.16-.58c.21-.18.39-.38.59-.56a3,3,0,0,1,.33-.27h0A.74.74,0,0,1,195.51,46.26Zm3.81-11.4a3.64,3.64,0,0,0-.42,1.28,11.69,11.69,0,0,0,0,1.45c0,.82-.18,1.63-.23,2.45a9.27,9.27,0,0,1-.82.84c-.32.28-.61.6-.92.89a4.32,4.32,0,0,1-.57.47l-.22.11a.1.1,0,0,1-.07,0,.43.43,0,0,0-.48.07,1.36,1.36,0,0,0-.43.6c0,.14-.07.4-.17.51s-.38,0-.56.06a1.43,1.43,0,0,0-.75.51c-.36.38-1,.66-1.12,1.2,0,.06,0,.12,0,.18s0,.06,0,.08-.3,0-.37,0c-.3.09-.4.32-.6.52s0,0-.16,0a1,1,0,0,0-.39,0,1.55,1.55,0,0,0-.63.51c-.16.18-.38.16-.58.29a.89.89,0,0,0-.35.73h-.18a.86.86,0,0,0-.38.13c-.21.15-.32.42-.55.55s-.53.16-.74.4-.21.63-.42.69-.42-.08-.62-.05a1.1,1.1,0,0,0-.7.41c-.28.39-.2.87-.31,1.3a1.53,1.53,0,0,0-.82-.16,2.33,2.33,0,0,0-1.06.75l-.13.13-.18,0c-2.41.85-4.25,3-6,4.74a13.2,13.2,0,0,1-4.52,2.57,49.31,49.31,0,0,0-4.89,2.28c-3.39,1.82-6.42,4.19-9.67,6.23s-6.61,4-10,5.86c-1.68,1-3.35,1.9-5,3a34.1,34.1,0,0,1-4.89,2.31,6.39,6.39,0,0,0-1.73,1.06,13.2,13.2,0,0,1-1.82,1.6,12.27,12.27,0,0,1-2.41.84,18.68,18.68,0,0,0-2.44,1c-3.25,1.64-6.32,3.54-9.71,4.9a27.41,27.41,0,0,0-4.58,2.17c-1.62,1-3.17,2.17-4.83,3.15a40.31,40.31,0,0,1-5.41,2.63,33.7,33.7,0,0,0-4.23,2.27,19,19,0,0,1-5,2.17,15.35,15.35,0,0,0-5,1.92c-.72.48-1.4,1-2.15,1.46a3.08,3.08,0,0,1-1.18.5c-.38,0-.75,0-1.13,0a5.15,5.15,0,0,0-1.89,1A12.48,12.48,0,0,1,82,106.8c-1.69.6-3.47,1.09-5.1,1.85s-2.68,1.86-4.15,2.58a22.06,22.06,0,0,1-2.72,1,20.18,20.18,0,0,0-2.36,1.09,22.21,22.21,0,0,1-2.7,1.28,16,16,0,0,1-2.74.64,8.83,8.83,0,0,0-2.25.61A12.9,12.9,0,0,0,58.11,117c-1.4.93-3.06.77-4.64,1.13-1.76.4-3.46,1.13-5.17,1.66s-3.73,1.1-5.56,1.74-3.61,1.37-5.48,1.88a30.39,30.39,0,0,1-6.16.87c-3.94.28-7.9.51-11.83.9-1.85.19-4.08.69-5.9.16-1.12-.32-2.11-1.12-3.26-1.13,0-.33-.41-.63-.68-.32a1.86,1.86,0,0,1-.61.44,2,2,0,0,1-.25-.34l0,0a4.17,4.17,0,0,1-.33-2.86c.17-1.06.39-2.1.5-3.18s.23-2.33.44-3.49a9,9,0,0,1,.8-2.67,1.73,1.73,0,0,1,.28.26.41.41,0,0,0,.64-.09,2.84,2.84,0,0,0,.55-2.37,3.91,3.91,0,0,0,.91-1.38,21.2,21.2,0,0,0,.85-2.43A36.85,36.85,0,0,1,15.62,100a17.36,17.36,0,0,1,2-2.86,11.62,11.62,0,0,0,1.6-3,32.18,32.18,0,0,1,1.5-3.4c.6-1.14,1.24-2.27,1.87-3.39s1.16-2,1.83-3,1.64-2,2.43-3c1.47-1.89,2.51-4.14,4.27-5.79.86-.8,1.8-1.51,2.62-2.35s1.52-1.78,2.36-2.6c1.65-1.61,3.52-3,5.3-4.4a18.34,18.34,0,0,0,2.83-2.67,22,22,0,0,1,2.45-2.83c.77-.67,1.61-1.31,2.43-1.91.66-.48,1.72-1.28,2.56-.83a.41.41,0,0,0,.6-.24,8.14,8.14,0,0,0,.19-1.17c2.78-.18,5.27-2.05,7.57-3.46.59-.36,1.2-.73,1.82-1.05a11.31,11.31,0,0,1,2.42-.68c1.53-.39,2.76-1.53,4.36-1.73,1.17-.14,2.46-.13,3.17-1.14a2.27,2.27,0,0,0,2.29-.07,11.17,11.17,0,0,1,3.31-1c.6-.11,1.19-.21,1.78-.35a16.86,16.86,0,0,1,1.87-.42c.38,0,.68.31,1.09.26a.75.75,0,0,0,.49-.25c.23-.22.2-.29.58-.33,1.23-.12,2.48.11,3.72.08s2.69,0,4,0c2.76,0,5.46-.45,8.22-.12a27.14,27.14,0,0,1,4.26.82c1.17.32,2.07,1.27,3.32,1.39.23,0,.39-.21.41-.41a3.82,3.82,0,0,0-1-2.42A2.55,2.55,0,0,0,104,44.57a8.4,8.4,0,0,0-1.56.36,2.58,2.58,0,0,1-1.71-.17c-.42-.18-.81-.41-1.23-.59a5.51,5.51,0,0,0-1.61-.34c-1.38-.12-2.73-.39-4.1-.57A21.22,21.22,0,0,0,90,43.07c-1.47.06-2.94.21-4.41.28-1.3.06-2.6.07-3.89.23a15.42,15.42,0,0,0-3.77,1.05,23.23,23.23,0,0,1-3.77,1c-1.3.24-2.61.42-3.89.75s-2.5.77-3.76,1.13-2.38.57-3.55.94a17.35,17.35,0,0,0-3.24,1.43,33.15,33.15,0,0,0-2.83,2,4,4,0,0,1-2.46.81,3.79,3.79,0,0,0-2.13.4,25.72,25.72,0,0,0-2.52,2.26,29.38,29.38,0,0,1-3.06,2.37,17.06,17.06,0,0,0-2.73,2c-.33.33-.64.69-1,1.06a3.71,3.71,0,0,1-1.11,1.12c-.28.13-.58.25-.86.35-.45.16-.92.19-1.16.65-.1.18-.11.41-.21.59a3.29,3.29,0,0,1-.58.6c-.45.42-.92.82-1.41,1.21-.94.75-1.92,1.47-2.79,2.3s-1.66,1.85-2.53,2.74-1.76,1.7-2.63,2.56a46.24,46.24,0,0,0-4.86,6.2c-.82,1.14-1.65,2.25-2.4,3.42s-1.4,2.22-2.16,3.3a26.61,26.61,0,0,0-2.16,2.9c-.57,1.08-1.29,2.06-1.88,3.13a23.57,23.57,0,0,1-1.83,3.1,3.46,3.46,0,0,0-1.07,2.48A2.82,2.82,0,0,1,13,98.86a19.11,19.11,0,0,1-.94,1.93c-.55,1-1.13,2.08-1.58,3.18-.5,1.27-.89,2.59-1.35,3.88s-1,2.62-1.52,3.94-.92,2.57-1.43,3.84a14.71,14.71,0,0,0-1.39,3.48,9.67,9.67,0,0,0-.08,1.2c-.31-.61-.67-1.21-1-1.84a6,6,0,0,1-.52-1.71A11.06,11.06,0,0,1,3,115c0-.55.36-1,.31-1.52S3,112.49,3,112a3.49,3.49,0,0,1,.19-1.92,3,3,0,0,0,.29-.77,3.64,3.64,0,0,0,0-.66,1.71,1.71,0,0,0,.67,0,.41.41,0,0,0,.28-.5,4.87,4.87,0,0,1,.42-2.75,7.19,7.19,0,0,0,.36-1.11,1.75,1.75,0,0,0,0-.56A1.37,1.37,0,0,1,5.1,103c.09-.25.4-.49.56-.69a4.48,4.48,0,0,0,.55-1c.14-.3.25-.63.41-.92a8.47,8.47,0,0,1,.79-1,3.58,3.58,0,0,0,.49-1.09,4,4,0,0,1,.44-.84,1.46,1.46,0,0,0,.28-.71,3.08,3.08,0,0,0-.13-.91.63.63,0,0,1,.26-.67A3.11,3.11,0,0,1,9.21,95a.88.88,0,0,0,.42-.34c.19-.29.12-.61.19-.92a3.43,3.43,0,0,1,.65-1c.52-.7.88-1.47,1.35-2.19s1-1,1.45-1.51a2.29,2.29,0,0,0,.39-.74,2.83,2.83,0,0,0,.13-.5,2.53,2.53,0,0,0,.08-.66l0,0L14,87a3.35,3.35,0,0,0,.44-.07,1.15,1.15,0,0,0,.7-.6,15.1,15.1,0,0,0,.52-1.86.65.65,0,0,1,.51-.45A2.41,2.41,0,0,0,17,83.6a6.43,6.43,0,0,0,1.28-1.93c.43-.73,1.1-1.31,1.47-2.07.19-.41.19-.82.62-1.07a4.25,4.25,0,0,0,.8-.67,12.46,12.46,0,0,0,.88-.9,1.71,1.71,0,0,0,.31-.56c.07-.24.07-.41.33-.5a2.49,2.49,0,0,0,.53-.16,1.39,1.39,0,0,0,.41-.39,6.05,6.05,0,0,0,.58-1.06,4.34,4.34,0,0,1,.67-.92,8.77,8.77,0,0,0,.64-1,2.33,2.33,0,0,0,1.72-1,.29.29,0,0,0,.06-.17A.47.47,0,0,0,27.8,71a10.09,10.09,0,0,0,.94-2,3.08,3.08,0,0,1,.59-.92,4.66,4.66,0,0,1,.49-.39c.13-.09.36-.36.5-.38s.24.11.32.12a.68.68,0,0,0,.48-.07.88.88,0,0,0,.41-.58,8.17,8.17,0,0,0,.27-1.11,1.92,1.92,0,0,0,.72.07.43.43,0,0,0,.41-.41c0-.44.07-.57.45-.73A5.09,5.09,0,0,0,34.49,64a25.87,25.87,0,0,0,2.15-2.41,19.55,19.55,0,0,1,2.79-2,9.63,9.63,0,0,0,1.32-1.15c.41-.45.74-1,1.17-1.39.09-.09.24-.29.36-.33a.67.67,0,0,1,.24,0,.7.7,0,0,0,.62-.31,1.23,1.23,0,0,0,.1-1c.43-.12.89-.18,1.32-.31a1.5,1.5,0,0,0,.82-.59c.68-.84,1.7-1.25,2.28-2.15a2.5,2.5,0,0,0,.81.1,1.47,1.47,0,0,0,1-.67,1.62,1.62,0,0,0,.23-.56c0-.1.07-.38.17-.43s.23,0,.3,0a.9.9,0,0,0,.28-.08,4.17,4.17,0,0,0,.62-.49c.38-.33.7-.71,1.07-1.06a4.7,4.7,0,0,1,1.36-.89c.6-.27,1.18-.63,1.79-.86a5.51,5.51,0,0,0,1.56-.71c.46-.37.78-.89,1.24-1.25s1.2-.69,1.75-1.1a.41.41,0,0,0,.16-.28l.35-.17a1.3,1.3,0,0,0,.7-.66c.11-.14.19-.09.37-.07a.86.86,0,0,0,.47-.08c.33-.17.3-.52.54-.74a1.67,1.67,0,0,1,.49-.22,2.18,2.18,0,0,0,.46-.28,10.66,10.66,0,0,1,.88-.76c.71-.48,1.56-.69,2.26-1.17.17-.12.33-.25.5-.36a1.37,1.37,0,0,1,.2-.13l.16-.08h0a1,1,0,0,0,.23.05,1.68,1.68,0,0,0,.45,0,.84.84,0,0,0,.56-.3c.1-.11.19-.22.3-.32a2.41,2.41,0,0,1,.6-.3,2.71,2.71,0,0,0,.79-.64c.23-.26.43-.49.8-.48a3.81,3.81,0,0,0,1.54,0c.65-.25.91-1,1.41-1.45a2.48,2.48,0,0,1,.92-.58,2.2,2.2,0,0,0,.9-.35c.24-.21.39-.5.62-.71a3.11,3.11,0,0,1,.9-.52c.34-.14.7-.24,1-.4.19-.09.37-.21.56-.3a4.83,4.83,0,0,1,.66-.14,2.09,2.09,0,0,0,.88-.55,2.3,2.3,0,0,1,1.12-.54,9.5,9.5,0,0,1,1.17-.19,1.53,1.53,0,0,0,1-.42c.23-.23.33-.58.61-.77s.71-.26,1-.45a1.51,1.51,0,0,0,.56-.71c.17-.39.32-.37.72-.33a3.17,3.17,0,0,0,1.93-.38.34.34,0,0,0,.31-.11,2.13,2.13,0,0,0,.18-.22,3.93,3.93,0,0,0,.67-.68,4,4,0,0,1,1.34-.07,2.56,2.56,0,0,0,1.38-.46c.35-.24.65-.55,1-.81a3.38,3.38,0,0,1,1.27-.48A3.15,3.15,0,0,0,96,25.31c.24-.19.64-.63,1-.48s.7.41,1.15.25a2.22,2.22,0,0,0,.85-.79.75.75,0,0,1,.49-.33,3.41,3.41,0,0,0,.78-.05,6.06,6.06,0,0,0,1.14-.75,2.23,2.23,0,0,1,1.4-.49,1.91,1.91,0,0,0,1.37-.19c.37-.21.68-.61,1.11-.68a7.24,7.24,0,0,0,1.31-.11,10.26,10.26,0,0,0,1.38-.66c.52-.25,1-.55,1.57-.78a7.09,7.09,0,0,1,1.51-.37,3.29,3.29,0,0,0,1.17-.71,5.93,5.93,0,0,1,1.54-.51c.45-.15.87-.4,1.32-.51s1,.14,1.44.1a1.83,1.83,0,0,0,1.15-.64,1.38,1.38,0,0,1,1.2-.37,5.49,5.49,0,0,0,1.51-.14,3.43,3.43,0,0,0,.7-.25,3,3,0,0,1,.63-.3c.22-.06.37.06.58.1a.86.86,0,0,0,.62-.14c.14-.1.22-.21.37-.3a2.13,2.13,0,0,1,.54-.28,3.2,3.2,0,0,1,.69,0c.24,0,.33-.18.49-.34s.07-.08.21-.07a1.18,1.18,0,0,1,.31.08,2,2,0,0,0,.73.11,1.51,1.51,0,0,0,1-.59.62.62,0,0,1,.41-.28c.24,0,.38.06.62-.06a2.57,2.57,0,0,1,.53-.25c.3-.08.59-.18.88-.28a16.91,16.91,0,0,1,1.68-.49,1.83,1.83,0,0,1,.66-.06c.21,0,.41.1.62.13a3.54,3.54,0,0,0,1.4-.21,4.42,4.42,0,0,1,1.49.09,2.6,2.6,0,0,0,1.31-.32,2.06,2.06,0,0,1,1.3,0,1.58,1.58,0,0,0,.81-.1c.32,0,.63-.23,1-.27a3.19,3.19,0,0,0,1.07-.22,2.4,2.4,0,0,0,.31-.21,1.58,1.58,0,0,0,.18-.13c.36.61,1,.45,1.61.44a5.51,5.51,0,0,0,1,.08,1.47,1.47,0,0,0,.75-.46c.12-.13.21-.35.36-.44s.58.06.8.13a8,8,0,0,0,2.07,0c.79,0,1.58.18,2.37.15a11.23,11.23,0,0,0,1.18-.26c.31,0,.54.24.86.25a.89.89,0,0,0,.76-.45l0-.05.12.25a.42.42,0,0,0,.68.19,2.84,2.84,0,0,0,.23-.24c.3.26.89.2,1.25.18,1-.06,2-.3,3-.33a1.94,1.94,0,0,1,1,.3,1.77,1.77,0,0,0,1.22.12c.3-.07.75-.38,1.07-.3.16,0,.29.2.43.27a1.32,1.32,0,0,0,.65.11c.25,0,.48-.09.72-.09s.42.05.63.05a1.78,1.78,0,0,0,.52-.1c.16-.06.38-.26.55-.25s.21.13.3.21a1.3,1.3,0,0,0,.46.28,1.46,1.46,0,0,0,.51,0,1.17,1.17,0,0,1,.7.2,2,2,0,0,0,.94.23.43.43,0,0,0,.38-.21l0-.11s0-.12,0-.18h0l0-.05h.12a3,3,0,0,1,.56.18c.65.27,2.06,1.09,2.61.38a3.28,3.28,0,0,0,.31.2,1.59,1.59,0,0,0,.75.1c.51,0,.85.5,1.32.64a2.29,2.29,0,0,0,.74,0c.25,0,.44.19.71.16A.61.61,0,0,0,176,14l.08-.07h0c.2,0,.27.06.48.2.37.23.83.43,1.2.1l.06,0a1.09,1.09,0,0,0,.27.11c.23.1.48.18.72.29l.15.07a1.29,1.29,0,0,0,.39.49,3.1,3.1,0,0,0,1.6.49,7.77,7.77,0,0,1,1.53.11,5.81,5.81,0,0,1,1.46.9,4.46,4.46,0,0,0,1.63.81c.79.18,1.65,0,2.38.4s1.23.85,1.92,1.18,1.31,1.06,2.08,1.41c.34.14.73.23.92.56a1,1,0,0,0,.48.49h0c.27.32.58.61.87.92a9.06,9.06,0,0,0,.94.92c.54.42,1.41.74,1.54,1.5a2.79,2.79,0,0,0,.32,1.05c.23.35.5.67.76,1a3.48,3.48,0,0,1,.56.9,4.4,4.4,0,0,1,.19.89,1.56,1.56,0,0,1,0,.48,1,1,0,0,0,0,.48.69.69,0,0,0,.27.38c.17.12.22.1.27.32.1.4.08.82.18,1.21s.29.72.41,1.08A2.92,2.92,0,0,1,199.32,34.86Z"/></svg>