<svg width="133" height="37" viewBox="0 0 133 37" fill="none" xmlns="http://www.w3.org/2000/svg">
<path d="M7.48539 34.2949C6.96167 34.8456 6.43122 35.2409 5.89402 35.4808C5.35683 35.7207 4.86132 35.818 4.40749 35.7728C3.95338 35.7164 3.56428 35.5451 3.2402 35.259C3.19382 35.2149 3.16978 35.1589 3.16807 35.091C3.16608 35.0119 3.18989 34.9462 3.2395 34.894L4.28142 33.7983C4.34757 33.7288 4.41444 33.6875 4.48201 33.6744C4.5493 33.6501 4.63109 33.6396 4.72737 33.6428C4.94976 33.7108 5.19018 33.7076 5.4486 33.6331C5.70703 33.5587 5.96855 33.3824 6.23316 33.1041C6.54739 32.7737 6.73502 32.4719 6.79605 32.1987C6.85708 31.9256 6.79774 31.7036 6.61802 31.5327C6.49048 31.4114 6.34202 31.3585 6.17266 31.3741C6.0088 31.3839 5.80403 31.4541 5.55833 31.5848C5.31264 31.7155 4.97005 31.9306 4.53056 32.2303C3.72409 32.7881 3.01633 33.1087 2.40729 33.1919C1.79797 33.2638 1.23243 33.0517 0.710667 32.5556C0.357028 32.2193 0.13479 31.8203 0.0439514 31.3585C-0.0468868 30.8968 0.00308244 30.4089 0.193859 29.8948C0.384636 29.3808 0.711561 28.8802 1.17463 28.3933C1.65425 27.8889 2.15742 27.5339 2.68416 27.3282C3.2109 27.1226 3.69857 27.0509 4.14717 27.1132C4.59548 27.1641 4.95269 27.3051 5.2188 27.5361C5.27098 27.5857 5.29792 27.6444 5.29963 27.7123C5.30134 27.7802 5.27738 27.8402 5.22777 27.8923L4.13624 29.0402C4.07008 29.1098 4.00336 29.1567 3.93607 29.1811C3.87429 29.1996 3.80077 29.2014 3.71552 29.1866C3.54911 29.0946 3.3451 29.0828 3.10349 29.1511C2.8674 29.2136 2.64186 29.3579 2.42686 29.584C2.17879 29.8449 2.03497 30.089 1.99543 30.3164C1.95588 30.5437 2.02596 30.7428 2.20568 30.9137C2.32742 31.0295 2.46471 31.0883 2.61754 31.0901C2.77588 31.0861 2.97253 31.0302 3.20748 30.9225C3.44215 30.8034 3.75138 30.6117 4.13517 30.3474C4.74642 29.902 5.27901 29.5915 5.73294 29.416C6.18659 29.2291 6.60393 29.1734 6.98495 29.2487C7.36018 29.3184 7.72461 29.5215 8.07825 29.8577C8.46667 30.2271 8.69832 30.6626 8.77318 31.1644C8.84777 31.6548 8.77313 32.1744 8.54928 32.7233C8.32514 33.2609 7.97051 33.7847 7.48539 34.2949Z" fill="#F3F1EC"/>
<path d="M17.2342 25.5737C16.3207 26.2624 15.4391 26.5814 14.5894 26.5308C13.7412 26.4689 12.9833 26.0284 12.3157 25.2093C12.1792 25.0416 11.9641 24.7629 11.6704 24.3733C11.3718 23.9772 11.1582 23.6873 11.0298 23.5037C10.4356 22.6492 10.2319 21.8009 10.4186 20.9588C10.6005 20.1103 11.1386 19.349 12.0329 18.6747C12.595 18.2509 13.1719 17.9663 13.7636 17.8208C14.3504 17.6689 14.904 17.6724 15.4244 17.831C15.9464 17.9785 16.3863 18.283 16.7443 18.7445L16.7587 18.7637C16.7973 18.8148 16.8086 18.8764 16.7928 18.9484C16.7785 19.0093 16.7459 19.0589 16.6948 19.0975L15.4012 20.0727C15.3182 20.1353 15.2422 20.1675 15.1734 20.1693C15.0998 20.1647 15.0109 20.1265 14.9068 20.0548C14.5717 19.7964 14.2602 19.6756 13.9722 19.6923C13.6795 19.7026 13.3766 19.8258 13.0636 20.0618C12.3098 20.6301 12.238 21.3454 12.8481 22.2079C12.9718 22.3852 13.1685 22.6527 13.4382 23.0104C13.7078 23.3682 13.9157 23.6372 14.0618 23.8177C14.723 24.6416 15.4306 24.7695 16.1843 24.2012C16.4974 23.9652 16.7023 23.7055 16.7992 23.422C16.8913 23.1322 16.8576 22.8019 16.6983 22.4311C16.6516 22.316 16.6386 22.2256 16.6592 22.16C16.6751 22.0879 16.7277 22.0182 16.8171 21.9508L18.1107 20.9755C18.1682 20.9322 18.2305 20.9152 18.2977 20.9247C18.3714 20.9293 18.4266 20.9627 18.4636 21.025C18.8088 21.4962 18.9829 22.0062 18.9858 22.5549C18.9904 23.0925 18.8413 23.6257 18.5386 24.1545C18.2311 24.6768 17.7963 25.1499 17.2342 25.5737Z" fill="#F3F1EC"/>
<path d="M26.0159 19.5587C25.9448 19.5953 25.868 19.6034 25.7854 19.5829C25.7063 19.5516 25.6485 19.5004 25.6119 19.4293L22.0421 12.4941C22.0019 12.4159 21.9938 12.339 22.018 12.2636C22.0492 12.1845 22.1004 12.1267 22.1716 12.0901L25.0737 10.5963C26.0055 10.1166 26.8409 9.95656 27.5798 10.1161C28.3222 10.2648 28.8929 10.7268 29.292 11.5021C29.5483 12.0001 29.6487 12.4837 29.5934 12.9531C29.5381 13.4224 29.3517 13.8557 29.0344 14.253L31.8471 16.1253C31.8904 16.157 31.9212 16.1907 31.9395 16.2262C31.9688 16.2831 31.9714 16.3493 31.9472 16.4247C31.9265 16.4894 31.8877 16.5363 31.8308 16.5656L30.4118 17.2961C30.2055 17.4022 30.0102 17.3813 29.826 17.2331L27.4015 15.5119L26.3132 16.0721L27.5324 18.4407C27.5727 18.519 27.5772 18.5976 27.5459 18.6767C27.5217 18.7521 27.4705 18.81 27.3923 18.8503L26.0159 19.5587ZM26.7603 13.9255C27.0875 13.757 27.2962 13.5507 27.3864 13.3063C27.4729 13.0548 27.4429 12.7868 27.2965 12.5023C27.15 12.2178 26.9493 12.0377 26.6944 11.9619C26.4429 11.8754 26.15 11.9182 25.8157 12.0903L24.5887 12.7219L25.5333 14.557L26.7603 13.9255Z" fill="#F3F1EC"/>
<path d="M41.5654 12.9649C40.4894 13.3034 39.5595 13.3065 38.7757 12.9743C37.992 12.6422 37.4202 11.9708 37.0604 10.9602C36.9832 10.7413 36.8762 10.4143 36.7394 9.97934C36.6001 9.53672 36.4995 9.20355 36.4376 8.97984C36.1589 7.96048 36.2473 7.08148 36.7026 6.34283C37.1632 5.59415 37.9201 5.0542 38.9732 4.72297C40.0264 4.39174 40.956 4.40125 41.7623 4.7515C42.5661 5.09411 43.1417 5.7643 43.489 6.76205C43.6435 7.19987 43.7556 7.52944 43.8252 7.75075C43.8924 7.96443 43.9879 8.29498 44.1119 8.74241C44.3954 9.77702 44.3108 10.6548 43.8583 11.3758C43.4058 12.0968 42.6415 12.6265 41.5654 12.9649ZM41.047 11.3165C41.4667 11.1845 41.7591 10.9542 41.9241 10.6256C42.0967 10.2945 42.1091 9.86712 41.9611 9.34338C41.8372 8.89596 41.7464 8.58067 41.6888 8.39751C41.6264 8.1991 41.5203 7.88861 41.3707 7.46605C41.1922 6.95191 40.9374 6.60852 40.6064 6.43589C40.2753 6.26326 39.9038 6.24175 39.4917 6.37136C39.0796 6.50097 38.7872 6.7313 38.6146 7.06234C38.4496 7.39099 38.4372 7.81838 38.5776 8.34452C38.6371 8.5606 38.7317 8.87469 38.8613 9.28679C38.9885 9.69125 39.0908 10.0029 39.168 10.2219C39.3541 10.7336 39.6089 11.077 39.9323 11.252C40.2557 11.427 40.6273 11.4486 41.047 11.3165Z" fill="#F3F1EC"/>
<path d="M51.8752 10.2502C51.7959 10.2614 51.7207 10.2437 51.6495 10.1972C51.5852 10.1416 51.5474 10.0743 51.5362 9.99504L50.4464 2.27154C50.4341 2.18441 50.4518 2.1092 50.4994 2.04593C50.555 1.98153 50.6224 1.94375 50.7016 1.93257L52.27 1.71127C52.3572 1.69897 52.4324 1.71664 52.4957 1.76427C52.5589 1.81189 52.5967 1.87928 52.609 1.96641L53.4875 8.19274L57.0879 7.68475C57.175 7.67245 57.2508 7.69408 57.3152 7.74963C57.3784 7.79725 57.4162 7.86464 57.4285 7.95177L57.5962 9.14C57.6073 9.21922 57.5897 9.29442 57.5432 9.36562C57.4955 9.42889 57.4282 9.46668 57.341 9.47897L51.8752 10.2502Z" fill="#F3F1EC"/>
<path d="M64.6203 9.01902C64.5403 9.01755 64.4688 8.98824 64.4058 8.93108C64.351 8.86607 64.3243 8.79357 64.3258 8.71358L64.4684 0.914884C64.47 0.826898 64.4993 0.755422 64.5563 0.700456C64.6213 0.645635 64.6938 0.618956 64.7738 0.620418L66.3576 0.649377C66.4455 0.650986 66.517 0.680298 66.572 0.737313C66.627 0.794327 66.6536 0.866827 66.652 0.954812L66.5371 7.24176L70.1725 7.30824C70.2604 7.30984 70.3319 7.34316 70.3867 7.40817C70.4416 7.46518 70.4683 7.53768 70.4667 7.62567L70.4448 8.82547C70.4433 8.90545 70.414 8.97693 70.3568 9.0399C70.2998 9.09486 70.2273 9.12154 70.1393 9.11993L64.6203 9.01902Z" fill="#F3F1EC"/>
<path d="M85.141 11.2841C85.0641 11.2619 85.0027 11.2151 84.9567 11.1436C84.9206 11.0666 84.9136 10.9897 84.9357 10.9128L87.0938 3.41728C87.1182 3.33272 87.165 3.27128 87.2343 3.23296C87.3113 3.19685 87.3883 3.18987 87.4651 3.212L90.4633 4.07526C91.5934 4.40064 92.3924 4.92204 92.8601 5.63947C93.3279 6.3569 93.4299 7.23127 93.1663 8.26259C93.1098 8.48775 93.0284 8.78483 92.9222 9.15384C92.8159 9.52285 92.728 9.81387 92.6583 10.0269C92.3122 11.0844 91.7641 11.7883 91.0139 12.1384C90.2736 12.483 89.3346 12.4915 88.1968 12.1639L85.141 11.2841ZM88.6173 10.4868C89.1247 10.6329 89.5319 10.6211 89.8388 10.4514C90.1479 10.274 90.3866 9.92228 90.5547 9.39625C90.6342 9.17774 90.7249 8.89166 90.8267 8.53803C90.9286 8.18439 91.0028 7.89774 91.0494 7.67805C91.1823 7.15855 91.1535 6.73817 90.9629 6.4169C90.7801 6.09785 90.435 5.86528 89.9276 5.71919L88.7744 5.38717L87.4065 10.1382L88.6173 10.4868Z" fill="#F3F1EC"/>
<path d="M100.98 17.1491C99.9646 16.6575 99.2857 16.022 98.943 15.2428C98.6004 14.4635 98.6447 13.5828 99.076 12.6005C99.1699 12.3882 99.3162 12.0769 99.515 11.6665C99.7172 11.2489 99.8725 10.9374 99.9808 10.7321C100.477 9.79911 101.144 9.21998 101.982 8.99468C102.831 8.76568 103.752 8.89177 104.746 9.37295C105.739 9.85413 106.409 10.4986 106.756 11.3064C107.106 12.1071 107.065 12.9895 106.634 13.9539C106.446 14.3785 106.301 14.6952 106.2 14.904C106.103 15.1056 105.946 15.4117 105.729 15.8224C105.226 16.7697 104.562 17.3506 103.738 17.565C102.915 17.7794 101.995 17.6407 100.98 17.1491ZM101.733 15.5939C102.129 15.7856 102.5 15.8185 102.845 15.6925C103.198 15.57 103.5 15.2674 103.751 14.7847C103.968 14.3741 104.118 14.0824 104.202 13.9096C104.293 13.7224 104.428 13.4237 104.609 13.0135C104.832 12.5169 104.882 12.0923 104.759 11.7396C104.637 11.3869 104.381 11.1165 103.992 10.9282C103.604 10.7399 103.233 10.707 102.88 10.8296C102.535 10.9556 102.233 11.2582 101.974 11.7373C101.869 11.9354 101.723 12.2289 101.534 12.6177C101.349 12.9993 101.21 13.2963 101.116 13.5086C100.901 14.0086 100.851 14.4333 100.966 14.7824C101.081 15.1316 101.337 15.4021 101.733 15.5939Z" fill="#F3F1EC"/>
<path d="M111.202 22.8151C111.092 22.7352 111.025 22.6427 111.003 22.5374C110.985 22.4257 111.003 22.3198 111.056 22.2198L114.5 15.2453C114.508 15.2212 114.521 15.1962 114.54 15.1703C114.578 15.1185 114.63 15.0873 114.697 15.0766C114.775 15.0642 114.84 15.0767 114.892 15.1143L116.096 15.9882C116.278 16.1198 116.326 16.2638 116.242 16.4204L114.125 20.6663L116.445 18.9399C116.643 18.8168 116.814 18.8069 116.956 18.9102L117.655 19.4177C117.817 19.5351 117.861 19.7001 117.786 19.9125L116.864 22.6538L120.244 19.324C120.367 19.1957 120.519 19.1973 120.7 19.3288L121.904 20.2027C121.963 20.245 121.995 20.3029 122.001 20.3764C122.018 20.4482 122.008 20.5099 121.97 20.5617L121.911 20.6227L116.349 26.0607C116.27 26.142 116.172 26.1891 116.053 26.2022C115.946 26.2135 115.841 26.1815 115.737 26.1064L114.815 25.4368C114.711 25.3617 114.649 25.277 114.628 25.1829C114.608 25.0889 114.608 25 114.629 24.9165L115.664 21.4269L112.667 23.4929C112.487 23.6189 112.306 23.6162 112.124 23.4846L111.202 22.8151Z" fill="#F3F1EC"/>
<path d="M121.915 31.4152C121.86 31.3575 121.83 31.2862 121.826 31.2013C121.833 31.1166 121.866 31.0465 121.923 30.991L127.543 25.5817C127.606 25.5207 127.678 25.4909 127.757 25.4924C127.842 25.4997 127.912 25.5321 127.967 25.5898L128.849 26.5062C128.988 26.6503 129.028 26.801 128.968 26.9583L127.679 32.2634L130.947 29.1177C131.01 29.0566 131.081 29.0269 131.161 29.0284C131.245 29.0357 131.315 29.0681 131.371 29.1258L132.369 30.1632C132.43 30.2266 132.46 30.2979 132.459 30.3771C132.457 30.4563 132.425 30.5264 132.361 30.5874L126.75 35.9884C126.687 36.0494 126.613 36.082 126.528 36.086C126.449 36.0845 126.379 36.052 126.318 35.9886L125.427 35.0636C125.305 34.9368 125.268 34.789 125.317 34.6201L126.485 29.4315L123.338 32.4607C123.28 32.5162 123.209 32.546 123.124 32.55C123.045 32.5485 122.975 32.516 122.914 32.4526L121.915 31.4152Z" fill="#F3F1EC"/>
</svg>
